<svg xmlns="http://www.w3.org/2000/svg" xmlns:xlink="http://www.w3.org/1999/xlink" version="1.1" viewBox="705.5 -1.82 589 154.65"><svg xml:space="preserve" width="2000" height="151" data-version="2" data-id="lg_kz3G27TDxxA6m6nZLI" viewBox="0 0 589 151" x="0" y="0"><rect width="100%" height="100%" fill="transparent"/><path fill="#a900a9" stroke="#a900a9" stroke-width="6.71" d="M144.239 1.531V149.47"/><path fill="#a900a9" fill-rule="evenodd" d="m93.86 44.725-34.225 25.82-.228-.17-.225.17-34.227-25.82v-34.65H93.86zm0 61.55v34.65H24.954v-34.65l34.452-25.99zm7.911-96.2h10.882V2.163H6.165v7.91h10.881v38.591L52.615 75.5l-35.569 26.833v38.593H6.165v7.91h106.488v-7.91H101.77v-38.591L66.201 75.5l35.57-26.833z"/><path fill="#a900a9" d="M191.235 15.98v106.64h-14.14V15.98Zm64.38 0-44.31 49.73-24.91 25.86-2.34-15.09 18.75-20.66 35.81-39.84Zm-13.63 106.64-39.47-52 8.42-11.21 47.9 63.21Z"/><rect width="81.74" height="106.64" x="-40.87" y="-53.32" fill="none" rx="0" ry="0" transform="translate(218.47 69.8)"/><path fill="#a900a9" d="M315.895 109.07V68.28q0-4.69-1.87-8.17-1.87-3.48-5.61-5.38-3.73-1.91-9.22-1.91-5.13 0-8.98 1.76-3.84 1.76-6 4.61-2.16 2.86-2.16 6.16h-13.55q0-4.25 2.19-8.43 2.2-4.17 6.34-7.58 4.14-3.4 9.96-5.42 5.82-2.01 13-2.01 8.64 0 15.27 2.93 6.63 2.93 10.4 8.82 3.78 5.9 3.78 14.76v36.92q0 3.95.69 8.42.7 4.47 2.09 7.69v1.17h-14.14q-1.02-2.34-1.61-6.26-.58-3.92-.58-7.29m2.34-34.5.15 9.53h-13.7q-5.79 0-10.33.91-4.54.92-7.62 2.75-3.07 1.83-4.68 4.58-1.61 2.74-1.61 6.4 0 3.74 1.68 6.82 1.69 3.07 5.09 4.87 3.41 1.79 8.39 1.79 6.22 0 10.98-2.64 4.76-2.63 7.58-6.44 2.82-3.81 3.04-7.4l5.79 6.52q-.51 3.08-2.78 6.81-2.27 3.74-6.05 7.14-3.77 3.41-8.93 5.64-5.17 2.24-11.61 2.24-8.06 0-14.1-3.15-6.04-3.15-9.37-8.46-3.34-5.31-3.34-11.9 0-6.38 2.49-11.25t7.18-8.13q4.69-3.26 11.28-4.94 6.59-1.69 14.72-1.69Z"/><rect width="65.41" height="82.18" x="-32.7" y="-41.09" fill="none" rx="0" ry="0" transform="translate(300.02 83.5)"/><path fill="#a900a9" d="M365.475 43.37v79.25h-13.62V43.37Zm-14.65-21.02q0-3.29 2.02-5.56 2.01-2.27 5.97-2.27 3.88 0 5.96 2.27 2.09 2.27 2.09 5.56 0 3.15-2.09 5.39-2.08 2.23-5.96 2.23-3.96 0-5.97-2.23-2.02-2.24-2.02-5.39"/><rect width="16.04" height="108.1" x="-8.02" y="-54.05" fill="none" rx="0" ry="0" transform="translate(359.35 69.07)"/><path fill="#a900a9" d="M400.775 55.82v66.8h-13.55V43.37h13.19Zm24.76-12.89-.07 12.6q-1.69-.37-3.19-.47-1.5-.11-3.41-.11-4.68 0-8.27 1.46t-6.08 4.1q-2.49 2.64-3.92 6.26-1.43 3.63-1.87 7.95l-3.81 2.2q0-7.18 1.43-13.48 1.43-6.3 4.43-11.17 3.01-4.87 7.66-7.62 4.65-2.74 11.09-2.74 1.47 0 3.37.33 1.91.33 2.64.69"/><rect width="38.31" height="80.71" x="-19.16" y="-40.35" fill="none" rx="0" ry="0" transform="translate(406.88 82.77)"/><path fill="#a900a9" d="M433.005 83.88v-1.69q0-8.57 2.49-15.93 2.49-7.36 7.18-12.82 4.68-5.45 11.35-8.49t14.94-3.04q8.35 0 15.05 3.04 6.7 3.04 11.43 8.49 4.72 5.46 7.21 12.82t2.49 15.93v1.69q0 8.57-2.49 15.89t-7.21 12.78q-4.73 5.46-11.35 8.5-6.63 3.04-14.98 3.04-8.35 0-15.02-3.04-6.66-3.04-11.39-8.5-4.72-5.46-7.21-12.78-2.49-7.32-2.49-15.89m13.55-1.69v1.69q0 5.93 1.39 11.17 1.39 5.23 4.21 9.26 2.82 4.03 7.07 6.34 4.25 2.3 9.89 2.3 5.56 0 9.78-2.3 4.21-2.31 6.99-6.34 2.78-4.03 4.21-9.26 1.43-5.24 1.43-11.17v-1.69q0-5.86-1.43-11.09-1.43-5.24-4.25-9.31-2.82-4.06-7.03-6.41-4.21-2.34-9.85-2.34-5.56 0-9.78 2.34-4.21 2.35-7.03 6.41-2.82 4.07-4.21 9.31-1.39 5.23-1.39 11.09"/><rect width="72.14" height="82.18" x="-36.07" y="-41.09" fill="none" rx="0" ry="0" transform="translate(469.57 83.5)"/><path fill="#a900a9" d="M568.285 101.6q0-2.93-1.28-5.46-1.29-2.52-5.2-4.61-3.92-2.09-11.76-3.63-6.59-1.39-11.9-3.29-5.31-1.91-9.01-4.62t-5.68-6.37q-1.97-3.66-1.97-8.57 0-4.68 2.08-8.86 2.09-4.17 5.94-7.4 3.84-3.22 9.26-5.05 5.42-1.83 12.09-1.83 9.52 0 16.26 3.37 6.73 3.37 10.32 8.97 3.59 5.6 3.59 12.41h-13.55q0-3.29-1.94-6.4-1.94-3.12-5.64-5.17-3.7-2.05-9.04-2.05-5.64 0-9.12 1.72-3.48 1.72-5.06 4.36-1.57 2.64-1.57 5.57 0 2.19.77 3.91.77 1.73 2.74 3.15 1.98 1.43 5.57 2.68 3.59 1.24 9.16 2.49 9.74 2.2 16.04 5.27 6.3 3.08 9.37 7.55 3.08 4.46 3.08 10.84 0 5.2-2.16 9.52-2.16 4.32-6.23 7.43-4.06 3.11-9.67 4.83-5.6 1.73-12.56 1.73-10.47 0-17.72-3.74-7.25-3.73-10.99-9.67-3.73-5.93-3.73-12.52h13.62q.29 5.56 3.22 8.82 2.93 3.26 7.18 4.62 4.25 1.35 8.42 1.35 5.57 0 9.34-1.46 3.77-1.47 5.75-4.03 1.98-2.56 1.98-5.86"/><rect width="63.06" height="82.18" x="-31.53" y="-41.09" fill="none" rx="0" ry="0" transform="translate(550.8 83.5)"/></svg></svg>